<svg xmlns="http://www.w3.org/2000/svg" width="116" height="48" viewBox="0 0 116 48" fill="none"><path d="M99.2712 39.4459C94.4513 39.4459 90.5568 35.3633 90.7881 30.3864C90.9809 25.9927 94.5477 22.3572 98.8856 22.1628C103.763 21.9295 107.793 25.8955 107.793 30.7947C107.774 35.5772 103.975 39.4459 99.2712 39.4459ZM99.2712 13.8032C90.0362 13.8032 82.5557 21.4046 82.5557 30.7947C82.5557 33.4192 83.1341 35.9077 84.1945 38.1434C83.4619 39.3293 82.1701 40.1069 80.7049 40.1069C78.4106 40.1069 76.5597 38.2017 76.5404 35.8299V26.1482L76.579 21.5601V13.531V11.9174V11.8979C76.3862 5.48238 70.6216 0 63.893 0C57.1643 0 51.6696 5.24909 51.2262 11.8979V12.0146V13.4727V17.9635L47.0811 18.8967C46.8111 18.955 46.5991 19.2078 46.5991 19.48V24.3208C46.5991 24.7096 46.9461 24.9818 47.3124 24.904L51.1491 24.0486V35.8493C51.1298 38.2211 49.2789 40.1264 46.9846 40.1264C44.6904 40.1264 42.8395 38.2211 42.8395 35.8493L42.8588 29.1033V27.3925V25.74V25.7205C42.4154 19.0717 36.9014 13.8226 30.1727 13.8226C23.4441 13.8226 17.9494 19.0717 17.4867 25.7205V25.8372V27.2953V28.0146V36.1215C17.4674 38.4933 15.6166 40.3985 13.3416 40.3985C11.0473 40.3985 9.19642 38.4933 9.17714 36.1215V26.4399V17.0693C9.17714 16.6804 8.83011 16.4083 8.46379 16.486L1.15678 18.1385C0.886867 18.1968 0.694071 18.4496 0.694071 18.7217V26.4399V34.469V36.0826V36.1021C1.1375 42.7509 6.6515 48 13.3801 48C20.1087 48 25.6035 42.7509 26.0662 36.1021V35.9854V34.5273V27.9757V25.7011C26.0854 23.3293 27.9363 21.4241 30.2306 21.4241C32.5249 21.4241 34.3757 23.3293 34.3757 25.7011V29.0644L34.3564 34.158V35.7716V35.791C34.7999 42.4399 40.3139 47.6889 47.0425 47.6889C53.7711 47.6889 59.2658 42.4399 59.7093 35.791V35.6744V34.2163L59.7671 22.0267H59.7478L63.5266 21.1908C63.7966 21.1324 63.9894 20.8797 63.9894 20.6075V15.825C63.9894 15.4362 63.6423 15.164 63.276 15.2418L59.7864 16V11.8785C59.8057 9.50668 61.6565 7.60146 63.9315 7.60146C66.2258 7.60146 68.0767 9.50668 68.0959 11.8785V21.5601L68.0574 34.1774V35.791V35.8104C68.5008 42.4593 74.0148 47.7084 80.7434 47.7084C84.021 47.7084 87.0286 46.4447 89.2843 44.384C92.1377 46.5614 95.7045 47.825 99.5604 47.7667C108.198 47.6306 115.447 40.6318 115.967 31.8639C116.565 22.0073 108.853 13.8032 99.2712 13.8032ZM9.90977 8.65128C9.90977 5.8712 7.69261 3.61604 4.95489 3.61604C2.21717 3.61604 0 5.8712 0 8.65128C0 11.4313 2.21717 13.6865 4.95489 13.6865C7.69261 13.706 9.90977 11.4313 9.90977 8.65128Z" fill="url(#paint0_linear_3796_5666)"></path><defs><linearGradient id="paint0_linear_3796_5666" x1="10.129" y1="24" x2="114.65" y2="24" gradientUnits="userSpaceOnUse"><stop stop-color="#ED2127"></stop><stop offset="0.25" stop-color="#EC6325"></stop><stop offset="0.7171" stop-color="#FBB038"></stop><stop offset="0.9959" stop-color="#39B54A"></stop></linearGradient></defs></svg> 
